HIERARCHY
ROOT ui
{
	 OFFSET 0 0 0
	 CHANNELS 3 XPosition YPosition Z Position
	 EndSite
	 {
	 OFFSET 0 -1 0
	 }
}
ROOT li
{
	 OFFSET 0 0 0
	 CHANNELS 3 XPosition YPosition Z Position
	 EndSite
	 {
	 OFFSET 0 -1 0
	 }
}
ROOT ul
{
	 OFFSET 0 0 0
	 CHANNELS 3 XPosition YPosition Z Position
	 EndSite
	 {
	 OFFSET 0 -1 0
	 }
}
ROOT ll
{
	 OFFSET 0 0 0
	 CHANNELS 3 XPosition YPosition Z Position
	 EndSite
	 {
	 OFFSET 0 -1 0
	 }
}
ROOT tt
{
	 OFFSET 0 0 0
	 CHANNELS 3 XPosition YPosition Z Position
	 EndSite
	 {
	 OFFSET 0 -1 0
	 }
}
ROOT tb
{
	 OFFSET 0 0 0
	 CHANNELS 3 XPosition YPosition Z Position
	 EndSite
	 {
	 OFFSET 0 -1 0
	 }
}
ROOT td
{
	 OFFSET 0 0 0
	 CHANNELS 3 XPosition YPosition Z Position
	 EndSite
	 {
	 OFFSET 0 -1 0
	 }
}
ROOT v
{
	 OFFSET 0 0 0
	 CHANNELS 3 XPosition YPosition Z Position
	 EndSite
	 {
	 OFFSET 0 -1 0
	 }
}
ROOT bn
{
	 OFFSET 0 0 0
	 CHANNELS 3 XPosition YPosition Z Position
	 EndSite
	 {
	 OFFSET 0 -1 0
	 }
}
MOTION
Frames: 32
Frame Time: 0.002
-0.008588437080383302	-0.0012673510313034057	0		0.59292236328125	-2.72909765625	0		-0.87510400390625	0.12942608642578124	0		-0.5498612670898437	-2.6577841796875	0		1.970839599609375	-1.4719290771484375	0		3.394657958984375	-1.0048603515625	0		4.71580126953125	-0.37366427612304687	0		5.89442041015625	0.42947332763671875	0		-0.12592524719238282	5.91835546875	0		
-0.008575103759765624	-0.001321498990058899	0		0.5928814697265625	-2.729163818359375	0		-0.9501336669921875	0.12792035675048827	0		-0.5813838500976563	-2.6321796875	0		1.9639884033203125	-1.46388134765625	0		3.371125732421875	-0.9814971923828125	0		4.69858642578125	-0.38446310424804686	0		5.889626953125	0.43840200805664065	0		-0.12579425048828125	5.91830322265625	0		
-0.008536561965942383	-0.001381664991378784	0		0.5571227416992187	-2.716502197265625	0		-0.8831884765625	0.12250970458984375	0		-0.5830049438476562	-2.613192626953125	0		1.9471058349609376	-1.45863134765625	0		3.388856689453125	-0.99598388671875	0		4.7037802734375	-0.376713134765625	0		5.89448876953125	0.42913372802734373	0		-0.12564747619628908	5.91824560546875	0		
0.01649750518798828	-0.0029581239223480226	0		0.5461388549804688	-2.7163525390625	0		-0.9760458374023437	0.12735946655273436	0		-0.6365283813476562	-2.590149169921875	0		1.9363680419921876	-1.447507568359375	0		3.35856005859375	-0.9634799194335938	0		4.688041015625	-0.36653350830078124	0		5.89871826171875	0.436884765625	0		-0.11128602600097656	5.9278935546875	0		
-0.00533864688873291	0.0014206880331039428	0		0.5913270874023437	-2.709353759765625	0		-0.8749056396484375	0.12923773193359375	0		-0.5769932250976563	-2.56642138671875	0		1.9316484375	-1.4365086669921876	0		3.371251220703125	-0.9818660278320313	0		4.68399072265625	-0.3725955810546875	0		5.9029658203125	0.44463671875	0		-0.2577378845214844	5.89881884765625	0		
-0.008308173179626465	-0.0015904929637908937	0		0.5384490966796875	-2.7053515625	0		-0.945777099609375	0.13163134765625	0		-0.6037106323242187	-2.554935302734375	0		1.931717529296875	-1.43661181640625	0		3.358698486328125	-0.9637289428710938	0		4.6751396484375	-0.36955746459960936	0		5.89890087890625	0.43655599975585935	0		-0.12513294219970703	5.91804248046875	0		
-0.008206819534301758	-0.00166531503200531	0		0.5903763427734375	-2.712498779296875	0		-0.8887471923828125	0.12740325164794922	0		-0.5635942993164063	-2.552821533203125	0		1.9181282958984376	-1.4204320068359375	0		3.364599853515625	-0.9729749755859375	0		4.666298828125	-0.3665182800292969	0		5.903171875	0.4443095397949219	0		-0.1259227066040039	5.9189892578125	0		
-0.00809749698638916	-0.001740033984184265	0		0.5277880859375	-2.695293701171875	0		-0.953704345703125	0.12467471313476562	0		-0.6350552978515625	-2.52941650390625	0		1.91821728515625	-1.4205343017578125	0		3.338070068359375	-0.9545482177734375	0		4.6564052734375	-0.3664549560546875	0		5.89849365234375	0.4542505187988281	0		-0.11050615692138673	5.9296064453125	0		
-0.007980353832244873	-0.0018125360012054444	0		0.5417623291015625	-2.700659912109375	0		-0.9495247192382813	0.12753263854980468	0		-0.6597012939453125	-2.51597021484375	0		1.9371055908203125	-1.4310213623046875	0		3.359738525390625	-0.9761141357421875	0		4.6455400390625	-0.36536676025390624	0		5.90859423828125	0.45289102172851564	0		-0.09414586639404297	5.93720556640625	0		
0.002349529981613159	0.007912158966064453	0		0.549014404296875	-2.692880859375	0		-0.9453150024414062	0.1313948211669922	0		-0.6164747314453125	-2.509913330078125	0		1.927666259765625	-1.4089154052734374	0		3.3413896484375	-0.949843994140625	0		4.64566162109375	-0.3654990234375	0		5.9087275390625	0.45274127197265623	0		-0.24256280517578124	5.90818408203125	0		
0.021340679168701172	4.6206000447273255E-4	0		0.58708642578125	-2.694730224609375	0		-0.8841871337890626	0.13009379577636718	0		-0.637017822265625	-2.492537841796875	0		1.925723876953125	-1.4119622802734375	0		3.316294189453125	-0.9604367065429688	0		4.633736328125	-0.3683790283203125	0		5.8988955078125	0.4538013916015625	0		-0.12607685089111328	5.919740234375	0		
-0.007562028884887695	-0.001994148015975952	0		0.5332930908203125	-2.689682373046875	0		-0.9631390380859375	0.12567962646484376	0		-0.6009300537109376	-2.4943212890625	0		1.9258558349609376	-1.4120435791015624	0		3.316432861328125	-0.9605385131835937	0		4.64486083984375	-0.3697262878417969	0		5.8990546875	0.4536613464355469	0		-0.12583644866943358	5.919689453125	0		
-0.007394885063171387	-0.002037147045135498	0		0.5852841186523438	-2.69680224609375	0		-0.8920054931640625	0.12319077301025391	0		-0.63165087890625	-2.48671875	0		1.8890706787109375	-1.4083558349609375	0		3.336375	-0.9710424194335937	0		4.63092236328125	-0.37455224609375	0		5.89922900390625	0.4535268859863281	0		-0.11035443878173828	5.93033740234375	0		
-0.0072131180763244625	-0.00206905198097229	0		0.53559716796875	-2.687816162109375	0		-0.9587045288085938	0.1295519256591797	0		-0.625387451171875	-2.480865234375	0		1.898145263671875	-1.4126031494140625	0		3.332056884765625	-0.9460313110351563	0		4.634220703125	-0.3687230224609375	0		5.90458203125	0.46129373168945315	0		-0.22829776000976562	5.9207392578125	0		
0.025101308822631837	0.0032511920928955077	0		0.565762451171875	-2.687462890625	0		-0.8834793701171875	0.1300033264160156	0		-0.6540411987304687	-2.47127783203125	0		1.898668701171875	-1.3956588134765624	0		3.31085107421875	-0.96467138671875	0		4.62859912109375	-0.35970071411132815	0		5.91278564453125	0.46100741577148435	0		-0.1097752685546875	5.93028955078125	0		
-0.0037400128841400147	8.453390002250671E-4	0		0.5359134521484376	-2.6878583984375	0		-0.8991148681640625	0.13734376525878905	0		-0.5937816162109375	-2.4675087890625	0		1.93678759765625	-1.39948095703125	0		3.34816357421875	-0.95950048828125	0		4.62737353515625	-0.38076431274414063	0		5.90403125	0.4620807189941406	0		-0.12467643737792969	5.91959912109375	0		
0.013507237434387207	0.001506590962409973	0		0.542421630859375	-2.671983642578125	0		-0.9029638061523437	0.13345669555664064	0		-0.6604188842773437	-2.458103515625	0		1.8990611572265625	-1.395721435546875	0		3.311259521484375	-0.96478662109375	0		4.62278369140625	-0.3717386474609375	0		5.90427001953125	0.46198077392578124	0		-0.12431295013427734	5.92061376953125	0		
-0.00632773494720459	-0.002049065113067627	0		0.53628271484375	-2.68783642578125	0		-0.9027177734375	0.1335050048828125	0		-0.6232527465820312	-2.459824462890625	0		1.8992769775390625	-1.3957286376953124	0		3.305671142578125	-0.95569970703125	0		4.62783251953125	-0.38090121459960935	0		5.905501953125	0.460873779296875	0		-0.10874881744384765	5.93033447265625	0		
0.018898727416992188	-0.003516057014465332	0		0.5385202026367187	-2.685839599609375	0		-0.9575541381835937	0.12971250915527344	0		-0.6739163818359375	-2.452707763671875	0		1.91316650390625	-1.4120045166015625	0		3.32548583984375	-0.976128173828125	0		4.6270361328125	-0.38292660522460936	0		5.9189267578125	0.4685300598144531	0		-0.09221074676513671	5.93805419921875	0		
0.00438588809967041	0.007862606048583985	0		0.5438605346679688	-2.6788857421875	0		-0.8781876831054688	0.13416729736328126	0		-0.6095421142578125	-2.44494921875	0		1.9205968017578126	-1.4021234130859375	0		3.32938232421875	-0.9442003784179688	0		4.62832470703125	-0.38097998046875	0		5.9144013671875	0.4785704345703125	0		-0.22522866821289061	5.9198857421875	0		
-0.005566467761993408	-0.0018347359895706176	0		0.5301550903320312	-2.6735166015625	0		-0.9127376708984375	0.14400555419921876	0		-0.6453408813476562	-2.444094970703125	0		1.9020062255859376	-1.3926845703125	0		3.304389404296875	-0.9546668701171875	0		4.61963232421875	-0.3778126220703125	0		5.90947998046875	0.4696263427734375	0		-0.1228133773803711	5.919869140625	0		
-0.005325775146484375	-0.0017176560163497925	0		0.5790864868164063	-2.685428466796875	0		-0.901703125	0.13392030334472657	0		-0.6431234130859375	-2.4420029296875	0		1.9022103271484374	-1.39261767578125	0		3.318581298828125	-0.9559273681640625	0		4.61157421875	-0.39164822387695314	0		5.90556787109375	0.4616724548339844	0		-0.12241676330566406	5.9199892578125	0		
-0.005104931831359863	-0.0015758739709854125	0		0.5273665771484375	-2.6782236328125	0		-0.9014783935546875	0.13408773803710938	0		-0.6450134887695312	-2.44380078125	0		1.902391357421875	-1.392530517578125	0		3.310631103515625	-0.962712890625	0		4.6117841796875	-0.39163851928710935	0		5.9099677734375	0.46956024169921873	0		-0.12202651977539063	5.92013427734375	0		
-0.0049107160568237305	-0.0014080699682235717	0		0.5652614135742188	-2.688861328125	0		-0.9012799682617187	0.13428330993652343	0		-0.642853759765625	-2.4416552734375	0		1.8765897216796874	-1.3898809814453126	0		3.303213623046875	-0.942485595703125	0		4.61509033203125	-0.38567755126953124	0		5.9111552734375	0.468524169921875	0		-0.2236683349609375	5.9204296875	0		
0.0023957209587097167	0.0056398649215698244	0		0.532695556640625	-2.67100048828125	0		-0.8929483642578125	0.14234004211425783	0		-0.63966943359375	-2.436502197265625	0		1.9108648681640625	-1.382458984375	0		3.31092529296875	-0.9625628662109375	0		4.61794677734375	-0.3996955261230469	0		5.91554052734375	0.47843692016601563	0		-0.10606342315673828	5.93118994140625	0		
-0.004623777866363525	-9.88070011138916E-4	0		0.5815066528320313	-2.681816162109375	0		-0.9009837036132813	0.13476483154296875	0		-0.6427342529296876	-2.441191650390625	0		1.907879150390625	-1.3852386474609375	0		3.327326171875	-0.9477928466796876	0		4.61222607421875	-0.3915105895996094	0		5.91049560546875	0.4695588684082031	0		-0.11997661590576172	5.91971337890625	0		
-0.004540162086486816	-7.331699728965759E-4	0		0.5275661010742188	-2.67745361328125	0		-0.9116834716796876	0.14528073120117188	0		-0.6128936157226562	-2.448539306640625	0		1.902766357421875	-1.3919481201171875	0		3.302150146484375	-0.9581351318359375	0		4.61916845703125	-0.3975709533691406	0		5.91442822265625	0.46151385498046876	0		-0.1206537094116211	5.9209931640625	0		
-0.007563631057739258	-0.003383354902267456	0		0.5793659057617188	-2.684276123046875	0		-0.9008511962890625	0.13537307739257812	0		-0.65096044921875	-2.44843310546875	0		1.902752197265625	-1.3917342529296874	0		3.299048583984375	-0.9629105224609374	0		4.60402783203125	-0.4051441650390625	0		5.9158408203125	0.478550537109375	0		-0.11843231964111328	5.9192421875	0		
-0.004509799957275391	-1.2796799838542939E-4	0		0.5133097534179687	-2.68059423828125	0		-0.9518850708007812	0.13479840087890624	0		-0.615093017578125	-2.449844970703125	0		1.902689697265625	-1.391489501953125	0		3.32364013671875	-0.9802413330078125	0		4.60400341796875	-0.40500445556640624	0		5.9206396484375	0.4685364685058594	0		-0.0868183364868164	5.93791015625	0		
0.002579391956329346	0.007076369762420654	0		0.5779009399414062	-2.692626953125	0		-0.959639892578125	0.1493544158935547	0		-0.6393466796875	-2.45396142578125	0		1.872858154296875	-1.377583740234375	0		3.298286865234375	-0.94448095703125	0		4.607056640625	-0.398898681640625	0		5.9158134765625	0.47875738525390626	0		-0.10284600067138672	5.92860546875	0		
-0.0016086269617080688	0.003550034999847412	0		0.5290559692382812	-2.674232666015625	0		-0.9036246337890625	0.1546000213623047	0		-0.6226182250976563	-2.456904541015625	0		1.9024166259765625	-1.3909007568359375	0		3.29568017578125	-0.9661793212890625	0		4.610681640625	-0.4107789001464844	0		5.91953759765625	0.4698233642578125	0		-0.23612324523925782	5.91080712890625	0		
-0.00482419490814209	0.0010387179851531982	0		0.5526809692382812	-2.6793359375	0		-0.9078548583984375	0.15114749145507814	0		-0.662927734375	-2.458608642578125	0		1.9001429443359374	-1.39351220703125	0		3.2917626953125	-0.9528099975585937	0		4.594705078125	-0.40120977783203127	0		5.91940380859375	0.4700021667480469	0		-0.11780371856689453	5.92074609375	0		
